<?xml version="1.0" standalone="no"?>
<!DOCTYPE svg PUBLIC "-//W3C//DTD SVG 20010904//EN"
 "http://www.w3.org/TR/2001/REC-SVG-20010904/DTD/svg10.dtd">
<svg version="1.0" xmlns="http://www.w3.org/2000/svg"
 width="1210.000000pt" height="1210.000000pt" viewBox="0 0 1210.000000 1210.000000"
 preserveAspectRatio="xMidYMid meet">
<metadata>
Created by potrace 1.14, written by Peter Selinger 2001-2017
</metadata>
<g transform="translate(0.000000,1210.000000) scale(0.100000,-0.100000)"
fill="#000000" stroke="none">
<path d="M5818 12095 c-1 -1 -41 -6 -88 -9 -82 -7 -201 -22 -244 -31 -12 -2
-38 -7 -59 -10 -112 -15 -328 -69 -503 -125 -308 -98 -699 -290 -984 -482 -74
-50 -294 -212 -316 -233 -6 -5 -33 -28 -60 -50 -135 -111 -326 -292 -464 -442
-98 -106 -120 -131 -190 -218 -35 -44 -67 -82 -70 -85 -8 -6 -178 -234 -205
-274 -114 -168 -197 -294 -202 -306 -4 -8 -31 -54 -60 -102 -29 -48 -53 -90
-53 -92 0 -3 -14 -29 -31 -58 -53 -90 -204 -396 -267 -543 -129 -299 -311
-822 -346 -995 -3 -14 -13 -52 -22 -85 -9 -33 -17 -67 -19 -75 -2 -8 -17 -76
-33 -150 -34 -150 -69 -331 -77 -400 -3 -25 -7 -52 -10 -60 -2 -8 -7 -35 -10
-60 -3 -25 -8 -56 -10 -70 -2 -14 -6 -47 -10 -75 -3 -27 -8 -66 -10 -85 -8
-63 -14 -114 -20 -195 -4 -44 -8 -91 -10 -104 -19 -119 -27 -864 -12 -1096 10
-156 15 -219 22 -280 2 -27 7 -77 11 -110 35 -374 168 -1028 278 -1380 2 -5 5
-14 6 -20 11 -37 116 -339 148 -425 137 -366 337 -776 545 -1115 50 -81 205
-310 271 -400 86 -117 91 -124 146 -190 19 -23 49 -60 67 -81 143 -177 384
-423 581 -593 92 -79 301 -241 311 -241 5 0 11 -4 13 -8 4 -11 158 -114 275
-185 83 -51 282 -161 293 -163 3 0 43 -19 90 -41 135 -64 167 -78 305 -128
115 -42 293 -98 350 -110 11 -3 56 -14 100 -24 94 -23 145 -32 380 -66 97 -14
227 -20 435 -19 240 0 332 6 493 30 20 3 47 7 60 9 70 9 193 34 302 62 55 14
105 26 110 27 36 8 205 64 294 98 176 65 409 174 554 257 20 11 54 31 74 42
186 105 472 312 673 488 84 73 376 363 435 431 129 149 205 243 289 355 53 72
100 135 104 140 19 24 134 198 188 285 146 231 328 579 429 815 26 61 53 124
61 142 78 174 279 777 310 931 3 13 16 69 30 125 54 223 112 537 139 752 4 28
8 61 10 75 2 14 6 52 10 85 3 33 8 74 10 90 2 17 7 66 10 110 4 44 8 96 10
115 29 292 23 957 -10 1285 -25 246 -38 345 -90 680 -5 30 -70 348 -80 385
-15 62 -39 154 -51 200 -8 30 -16 64 -19 75 -26 111 -163 533 -205 630 -4 11
-29 74 -55 140 -26 66 -61 147 -76 179 -16 33 -29 63 -29 68 0 22 -191 395
-307 598 -122 214 -350 548 -499 730 -148 181 -444 493 -579 610 -142 123
-182 156 -285 233 -63 47 -119 90 -125 94 -34 28 -239 157 -347 219 -133 77
-323 170 -443 219 -38 15 -83 33 -100 40 -16 7 -59 23 -95 35 -36 12 -72 24
-80 27 -8 3 -19 7 -25 9 -5 1 -41 12 -80 24 -76 23 -258 69 -290 74 -11 2 -58
10 -105 19 -47 9 -128 21 -180 27 -52 6 -106 14 -120 16 -27 6 -556 15 -562 9z
m-1724 -2180 c14 -107 18 -134 26 -180 5 -27 12 -70 15 -95 11 -82 25 -161 29
-169 2 -3 7 -28 10 -54 17 -127 81 -348 126 -437 35 -71 146 -199 172 -200 4
0 13 -6 20 -14 35 -35 257 -124 412 -166 142 -38 231 -68 216 -73 -8 -4 -73
-23 -145 -43 -339 -96 -499 -172 -598 -285 -99 -113 -184 -375 -232 -719 -4
-24 -8 -47 -10 -50 -1 -3 -6 -30 -9 -60 -4 -30 -8 -64 -10 -75 -2 -11 -10 -59
-17 -107 -7 -48 -14 -86 -16 -84 -4 4 -9 32 -18 101 -3 28 -8 57 -10 65 -2 8
-6 35 -9 60 -6 47 -12 82 -22 140 -4 19 -8 44 -9 55 -9 62 -48 251 -65 320 -6
22 -13 47 -15 55 -2 8 -4 16 -5 18 -3 2 -3 2 -15 47 -4 17 -13 36 -19 44 -6 8
-10 16 -9 17 5 8 -31 82 -60 124 -42 61 -110 124 -178 164 -71 42 -232 105
-374 146 -60 17 -141 41 -180 52 l-70 21 165 47 c268 77 376 118 474 180 155
98 236 239 300 520 25 110 68 349 82 455 3 28 8 59 10 70 2 11 6 38 9 60 4 22
8 49 10 60 2 11 4 24 4 29 2 20 10 -1 15 -39z m2590 -196 c24 -143 48 -293 52
-324 2 -16 10 -70 18 -120 9 -49 38 -227 66 -395 27 -168 55 -325 60 -350 5
-25 12 -56 14 -70 15 -92 71 -374 92 -465 3 -11 7 -30 10 -43 12 -59 77 -303
95 -358 11 -33 21 -69 23 -80 10 -47 91 -249 142 -354 107 -220 223 -372 399
-525 128 -111 401 -260 645 -352 232 -87 752 -247 1005 -309 48 -11 342 -93
365 -101 11 -4 -340 -106 -510 -148 -96 -24 -462 -133 -552 -164 -32 -11 -58
-18 -58 -15 0 2 -13 -2 -30 -11 -16 -8 -31 -15 -32 -15 -8 3 -218 -75 -318
-118 -107 -46 -282 -135 -338 -173 -24 -16 -47 -29 -53 -29 -5 0 -9 -4 -9 -8
0 -4 -12 -15 -27 -24 -69 -41 -268 -232 -316 -302 -117 -173 -174 -279 -240
-446 -59 -151 -78 -210 -121 -360 -44 -159 -129 -530 -150 -655 -2 -11 -10
-58 -19 -105 -9 -47 -18 -98 -21 -115 -14 -85 -17 -101 -21 -115 -2 -8 -6 -33
-10 -55 -9 -59 -14 -94 -25 -150 -5 -27 -12 -68 -15 -90 -3 -22 -8 -51 -10
-65 -7 -42 -46 -283 -51 -315 -3 -16 -9 -55 -14 -85 -5 -30 -12 -73 -15 -95
-3 -22 -10 -69 -16 -105 -6 -36 -13 -83 -15 -104 -7 -52 -23 -82 -25 -46 -2
28 -4 47 -14 105 -7 43 -21 134 -30 200 -4 22 -8 47 -10 55 -2 8 -7 35 -10 60
-3 25 -11 72 -16 105 -6 33 -12 71 -14 85 -2 14 -6 39 -9 55 -10 58 -35 210
-39 240 -4 25 -57 327 -73 415 -2 14 -6 39 -9 55 -3 17 -22 107 -41 200 -20
94 -38 181 -40 195 -19 95 -105 412 -146 535 -106 319 -245 563 -422 739 -97
97 -135 129 -246 201 -255 168 -581 297 -1205 476 -99 28 -184 52 -190 54 -22
5 -78 20 -245 66 -96 26 -192 51 -214 55 -26 4 -34 9 -25 14 8 5 102 31 209
60 107 29 274 74 370 102 96 27 182 51 190 53 37 9 265 79 370 114 851 284
1177 582 1414 1292 75 226 147 528 225 944 38 203 36 192 66 375 29 174 32
195 40 230 3 14 7 41 9 60 2 19 11 76 20 125 8 50 18 108 21 130 2 22 6 49 9
60 8 44 16 93 22 140 3 28 8 53 10 56 2 4 6 31 10 60 4 30 8 61 10 69 1 8 3
28 3 44 1 48 11 24 25 -65z m-2070 -5401 c4 -24 9 -61 11 -83 6 -42 38 -225
56 -310 66 -321 139 -442 324 -534 64 -32 267 -101 372 -126 122 -30 127 -32
108 -38 -11 -3 -65 -18 -120 -32 -203 -54 -393 -123 -403 -147 -2 -5 -10 -8
-18 -8 -25 0 -131 -115 -161 -176 -44 -86 -84 -217 -107 -349 -3 -16 -8 -41
-11 -55 -4 -21 -33 -190 -51 -310 -7 -43 -23 -76 -22 -45 0 11 -2 34 -5 50 -9
47 -21 119 -22 130 -1 10 -18 116 -20 125 -12 53 -18 83 -31 160 -11 66 -55
205 -85 269 -78 169 -192 242 -516 332 -81 23 -161 46 -178 52 l-29 11 44 13
c25 7 54 15 65 17 11 2 46 11 77 21 32 9 61 16 65 17 5 0 57 17 116 38 228 80
324 173 392 374 23 69 62 237 80 347 3 19 8 48 12 64 3 17 7 39 8 50 9 76 29
185 35 185 4 0 11 -19 14 -42z"/>
</g>
</svg>
